<svg width="21" height="21" viewBox="0 0 21 21" fill="none" xmlns="http://www.w3.org/2000/svg">
<path d="M4 5.25H17.79C18.0694 5.25001 18.3457 5.30857 18.6011 5.42191C18.8565 5.53524 19.0854 5.70083 19.2729 5.90801C19.4603 6.11519 19.6023 6.35936 19.6897 6.62478C19.777 6.89019 19.8078 7.17097 19.78 7.449L19.18 13.449C19.1307 13.9425 18.8997 14.4001 18.532 14.7329C18.1642 15.0657 17.686 15.25 17.19 15.25H7.64C7.17747 15.2502 6.72918 15.09 6.37144 14.7969C6.01371 14.5037 5.76866 14.0956 5.678 13.642L4 5.25Z" stroke="black" stroke-width="2" stroke-linejoin="round"/>
<path d="M4 5.25L3.19 2.007C3.13583 1.79075 3.01095 1.59881 2.83521 1.46166C2.65946 1.3245 2.44293 1.25001 2.22 1.25H1" stroke="black" stroke-width="2" stroke-linecap="round" stroke-linejoin="round"/>
<path d="M7 19.25H9" stroke="black" stroke-width="2" stroke-linecap="round" stroke-linejoin="round"/>
<path d="M15 19.25H17" stroke="black" stroke-width="2" stroke-linecap="round" stroke-linejoin="round"/>
</svg>
